<svg width="22" height="22" viewBox="0 0 22 22" fill="none" xmlns="http://www.w3.org/2000/svg">
<path d="M15.1567 11L20.918 16.6888C22.194 17.8694 22.194 19.6384 20.918 20.9168C19.9356 22.194 17.9721 22.194 16.794 20.9168L11 15.2533L5.30513 20.8177C4.127 22.0961 2.35921 22.0961 1.082 20.8177C-0.194 19.8353 -0.194 17.8694 1.082 16.6888L6.73458 11L1.18108 5.28579C-0.194 4.10646 -0.194 2.33746 1.18108 1.15691C1.40024 0.838653 1.69347 0.578432 2.03553 0.398664C2.37758 0.218895 2.75821 0.124966 3.14463 0.124966C3.53104 0.124966 3.91167 0.218895 4.25373 0.398664C4.59578 0.578432 4.88901 0.838653 5.10817 1.15691L11 6.67537L16.6949 1.15691C17.873 -0.219378 19.6408 -0.219378 20.8189 1.15691C22.0961 2.1405 22.0961 4.10525 20.8189 5.28579L15.1567 11Z" fill="#F3485B"/>
</svg>
